<?xml version="1.0" encoding="UTF-8"?>
<svg xmlns="http://www.w3.org/2000/svg" id="Outline" viewBox="0 0 512 512" width="512" height="512"><path d="M488,48a32.036,32.036,0,0,0-32-32,24.3,24.3,0,0,0-17.336,7.655,25.154,25.154,0,0,0-2.574,3.155A29.684,29.684,0,0,0,424,24a32,32,0,0,0-7.187,63.187A32,32,0,0,0,480,80a32.547,32.547,0,0,0-2.291-12.816A22.128,22.128,0,0,0,488,48Zm-25.443,8.131a8,8,0,0,0-1.291,15.388C463.282,72.251,464,76.38,464,80a16,16,0,0,1-32,0,8,8,0,0,0-8-8,16,16,0,0,1,0-32c2.171,0,7.3,1.327,9.314,4.394a8,8,0,0,0,14.679-4.72,7.144,7.144,0,0,1,2.213-4.938A8.379,8.379,0,0,1,456,32a16.019,16.019,0,0,1,16,16C472,49.583,472,54.4,462.557,56.131Z"/><path d="M432.5,192.016a23.182,23.182,0,0,0-14.689,4.526,34.433,34.433,0,0,0-5.354-5.007,39.73,39.73,0,0,0-5.192-8.457c1.229-17.484-3.871-30.493-14.852-37.752-13.218-8.738-26.511-7.962-35.871-5.45-.69-10.155-4.327-23.715-17.293-32.746,10.132-16.007,3.772-27.461-.027-32.16a33.264,33.264,0,0,0-18.111-11.5c1.4-8.012-.814-15.732-6.577-21.25a36.45,36.45,0,0,0-26.679-9.951c-9.478.3-18.412,3.973-24.511,10.072-4.5,4.5-6.992,11.21-6.845,18.419a27.806,27.806,0,0,0,.6,5.222,32.12,32.12,0,0,0-10.4,9.091,45.407,45.407,0,0,0-3.607,5.342c-23.934,2.31-36.722,14.089-42.706,25.187-9.61-6.487-23.9-10.239-40.443-.5-14.724,8.673-20.074,21.444-21.152,32.5-15.073-4.576-29.314,2.521-36.035,8.359-.06.052-.118.1-.176.158-11.322,10.439-15.89,23.131-13.2,36.18A39.811,39.811,0,0,0,80,208c0,2.426,17.43,154.1,32.053,280.917A8,8,0,0,0,120,496H376a8,8,0,0,0,7.947-7.083c.161-1.392,15.788-136.927,25.095-218.482a21.632,21.632,0,0,0,9.371-6.288c3.5-4.084,5.464-9.456,5.867-16.036,1.558-.017,7.419-.111,7.72-.111,15.477,0,24-8.523,24-24C456,203.034,443.818,192.723,432.5,192.016ZM259.3,84.925c4.547-5.821,6.841-5.346,8.075-5.091a8,8,0,0,0,7.042-13.717c-1.121-1.033-1.877-3.263-1.926-5.681-.056-2.749.793-5.41,2.162-6.779,7.9-7.9,21.975-6.423,28.81.121,3.49,3.341,1.986,9.277-1.051,13.678a8,8,0,0,0,9.967,11.794c3.331-1.556,10.2.586,14.4,5.78,5.128,6.342-1.214,15.091-7.436,21.313-6.3,6.3-22.385,6.3-28.686,0a8,8,0,0,0-11.314,0,13.758,13.758,0,0,1-20.686,0C250.8,98.486,255.69,89.552,259.3,84.925ZM113.3,158c1.944-1.617,15.773-12.246,29.355-.046a7.99,7.99,0,0,0,12.971-8.369c-.625-2.023-5.587-20.073,12.436-30.689,7.444-4.386,14.252-4.866,20.809-1.47a27.248,27.248,0,0,1,8.581,7.171,7.978,7.978,0,0,0,14.511-3.821,25.632,25.632,0,0,1,5.18-11.6c4.707-6.052,11.831-10.036,21.221-11.916.073,7.417,3.068,14.489,8.98,20.4A30.665,30.665,0,0,0,269,127.029a29.62,29.62,0,0,0,16.193-4.927A39.8,39.8,0,0,0,305,127.029c9.3,0,17.792-2.768,23.741-7.653,6.219,3.81,10.059,9.863,11.406,18.02a41.236,41.236,0,0,1,.016,13,8.014,8.014,0,0,0,12.107,8.37c.662-.411,16.373-9.972,31.319-.091,4.155,2.746,6.271,7.246,7.212,12.192A39.876,39.876,0,0,0,344,184.025a39.963,39.963,0,0,0-64,0,39.963,39.963,0,0,0-64,0,39.963,39.963,0,0,0-64,0A39.933,39.933,0,0,0,105.07,170.9C106.1,166.425,108.83,162.149,113.3,158ZM160,207.844A24,24,0,0,1,208,208c0,.077,1.677,58.8,1.677,58.8-17.061,2.545-32.954,6.8-45.579,12.695ZM248,344c-59.479,0-96-18.638-96-32s36.521-32,96-32,96,18.638,96,32S307.479,344,248,344Zm22.37-79.055c-7.416-.627-14.925-.945-22.37-.945s-14.954.318-22.37.945l-1.629-57a24,24,0,0,1,48,0Zm-58.1,92.63L215.768,480H175.556L167.91,346.2C180.525,351.5,195.915,355.318,212.271,357.575Zm16.054,1.694c6.537.484,13.13.731,19.675.731s13.138-.247,19.675-.731L264.225,480h-32.45Zm55.4-1.694c16.356-2.257,31.747-6.075,44.361-11.38L320.444,480H280.232Zm2.594-90.778S288,208.077,288,208a24,24,0,0,1,48-.156L331.9,279.492C319.277,273.6,303.384,269.342,286.323,266.8ZM96,207.721A24,24,0,0,1,144,208c0,.154,4.612,80.933,4.612,80.933C140.676,295.422,136,303.129,136,312c0,9.854,5.769,18.272,15.369,25.18L159.53,480h-32.4C116.19,385.091,96.792,216.355,96,207.721ZM368.869,480h-32.4l8.161-142.82C354.231,330.272,360,321.854,360,312c0-8.871-4.676-16.578-12.612-23.067,0,0,4.612-80.779,4.612-80.933a23.95,23.95,0,0,1,37.074-20.084,34.886,34.886,0,0,0-10.109,5.867c-7.173,5.81-9.7,14.539-6.923,23.949.294.994.63,1.947.99,2.848a21.4,21.4,0,0,0-3.161,3.8c-3.991,6.066-6.361,16.388-1.045,27.164,5.441,11.03,13.811,17.875,24,19.857C384.731,342.319,372.172,451.346,368.869,480ZM417.29,232.1c.183.027.329.061.435.084Q417.509,232.14,417.29,232.1ZM432,232c-.337,0-12.986.21-14.817.088a8,8,0,0,0-9.123,8.887c.738,6.018.1,10.547-1.791,12.755-.452.527-1.828,2.13-6.514,2.274-7.1.217-12.694-3.666-16.581-11.544a12.054,12.054,0,0,1-.882-9.323A6.741,6.741,0,0,1,384.264,232a8,8,0,0,0,6.06-12.9,21.374,21.374,0,0,1-2.934-5.893c-1.243-4.215.2-5.819,1.645-6.991,3.794-3.073,7.176-4.316,10.049-3.7,4.774,1.031,8.726,7,9.739,9.013a8,8,0,0,0,10.025,3.942,16.932,16.932,0,0,0,4.919-3.292c2.17-1.841,5.146-4.355,7.734-4.2,3.286.206,8.5,4.735,8.5,16.016C440,230.654,438.654,232,432,232Z"/><path d="M56,120A32.036,32.036,0,0,1,24,88c0-7.533,1.322-12.586,4.824-16.838C24.979,64.264,24,55.316,24,48c0-15.39,12.234-32,32-32A30.888,30.888,0,0,1,84.887,34.78,24.892,24.892,0,0,1,96,32a32,32,0,0,1,0,64,25.542,25.542,0,0,1-8.664-1.5A32.055,32.055,0,0,1,56,120Zm0-88c-11.036,0-16,9.356-16,16,0,9.89,2.3,15.92,4.428,17.337a8,8,0,0,1,0,13.326C40.63,81.187,40,81.782,40,88a16,16,0,0,0,32,0V80A8,8,0,0,1,85.7,74.381C89.632,78.372,92.618,80,96,80a16,16,0,0,0,0-32c-4.062,0-9.012,4.469-10.639,5.938A8,8,0,0,1,72.022,48.6C71.814,45.827,70.065,32,56,32Z"/></svg>
